<svg xmlns="http://www.w3.org/2000/svg" viewBox="0 0 250 70.79"><defs><style>.a{fill:#a7b2c6;}</style></defs><title>bear</title><path class="a" d="M17.17,70.76H3.5c-3,0-4-1.45-3.28-4.43C1,63,1.48,59.67,2.07,56.34c1.6-9.14,3.17-18.27,4.78-27.4Q9,16.67,11.23,4.42A4.9,4.9,0,0,1,16.36.06C24.11,0,31.85,0,39.59.11a19.93,19.93,0,0,1,12.6,4.25c1.91,1.55,2.41,4.26.78,5.72a8,8,0,0,1-3.57,1.54c-4,.89-8.14,1.62-12.21,2.42a13.6,13.6,0,0,0-1.51.43c-1,.31-1.93.93-2.73-.53-.45-.82-2.31-.33-2.94.84a3.7,3.7,0,0,1-2.29,1.92,3.69,3.69,0,0,0-1.22.77,28.91,28.91,0,0,1-7.45,4.18,1.68,1.68,0,0,0-1.12,1.87c.17,3.66,2.82,6.31,6.76,6.55,3.54.22,7.09.25,10.63.53a30.61,30.61,0,0,1,12.15,3.32c5.14,2.73,8,6.94,8.24,12.73a21.89,21.89,0,0,1-8.34,18.59,25.18,25.18,0,0,1-10.66,4.65c-4.69,1.06-9.46.79-14.21.85-1.78,0-3.55,0-5.33,0Z"/><path class="a" d="M243.33,70.74h-1.77L230,70.79c-2.23,0-3.1-.57-3.92-2.67q-2.61-6.77-5.2-13.54c-.65-1.69-1.29-3.38-2-5.07a2.64,2.64,0,0,0-3-2c-1.81,0-3.63.1-5.44,0-1.21-.07-1.51.54-1.68,1.54-.84,5-1.72,10-2.6,15-.33,1.9-.67,3.81-1.11,5.69-.09.38-.61.93-.94.93-4.84.06-9.68,0-14.52,0-.11,0-.22-.09-.46-.18,0-.36.08-.75.14-1.13q3-17.14,6-34.3c1.1-6.27,2.23-12.54,3.33-18.81.87-4.92,1.75-9.85,2.56-14.78C201.33.4,201.7,0,202.85,0c8.22,0,16.45,0,24.68,0,5.53,0,10.72,1.28,15,5a22.21,22.21,0,0,1,6.12,24.05,26.48,26.48,0,0,1-9.22,12.73,36.64,36.64,0,0,1-5,2.86c-.94.48-1.25,1-.82,2,1.81,4.35,3.57,8.72,5.34,13.09C240.4,63.32,241.81,66.9,243.33,70.74ZM221.94,15.47v-.11c-1.93,0-3.87.05-5.8,0-1,0-1.49.33-1.67,1.37q-1.32,7.82-2.76,15.59c-.17.92.1,1.22,1,1.21,3.18,0,6.37-.2,9.54,0,7.17.53,11.84-5.84,11.47-12-.16-2.82-2.37-6.26-6.39-6.08C225.57,15.54,223.75,15.47,221.94,15.47Z"/><path class="a" d="M59.92,70.6c.24-1.46.44-2.84.68-4.21C62,58.69,63.39,51,64.75,43.3q2.93-16.56,5.79-33.13c.42-2.46.8-4.93,1.21-7.39.34-2,1-2.59,3.08-2.59h39.7c1.56,0,1.55,0,1.28,1.56-.72,4.13-1.45,8.27-2.11,12.41-.16,1-.54,1.37-1.63,1.37-8.39-.06-16.79,0-25.18-.06-1.11,0-1.48.45-1.64,1.43-.49,3.07-1,6.12-1.56,9.18-.24,1.39-.19,1.48,1.2,1.48h22.39c.43,0,.86,0,1.45.06-.46,2.72-.87,5.3-1.33,7.87-.35,2-.77,4-1.11,5.94-.13.76-.38,1.07-1.24,1.07-7.7,0-15.4,0-23.1,0a1.17,1.17,0,0,0-1.38,1.13c-.43,2.63-.92,5.24-1.33,7.87-.36,2.35.59,3.58,3.05,3.75,2,.15,4.11.09,6.17.1,5.12,0,10.24,0,15.35,0,2.57,0,3,.61,2.49,3.11-.22,1.14-.48,2.29-.61,3.45-.62,5.29-4.59,8.51-9.71,8.66-5.76.18-11.53.08-17.3.08-6,0-11.93,0-17.9,0C60.55,70.65,60.32,70.62,59.92,70.6Z"/><path class="a" d="M180.55,70.58c-.37,0-.68.08-1,.08-5,0-10,0-15,0-1,0-1.38-.24-1.51-1.3q-1.92-15.78-4-31.55a42.13,42.13,0,0,0-4.2-14.19c-2.32-4.47-5.37-8.32-10.08-10.56-1.43-.69-1.82-1.76-1.15-3.46a34.89,34.89,0,0,1,1.63-3.23c.83-1.61,1.64-3.23,2.48-4.83A2.82,2.82,0,0,1,150.54,0c5.76,0,11.53.06,17.3,0,1,0,1.38.37,1.53,1.33,1.18,7.61,2.36,15.21,3.61,22.8,1.68,10.18,3.42,20.35,5.12,30.52q1.25,7.45,2.45,14.91A6.65,6.65,0,0,1,180.55,70.58Z"/><path class="a" d="M112.23,70.62c.51-1,.92-1.81,1.34-2.62,3.18-6.19,6.33-12.39,9.55-18.56a4.87,4.87,0,0,1,6.3-2.29c1.67.76,3.19,1.85,4.8,2.75,1.15.64,2.34,1.22,3.53,1.8,3.91,1.89,7.84,3.74,11.74,5.68.44.22.7.84,1,1.28-.55.32-1.09.9-1.64.91-3.87.07-7.74.06-11.61,0a2.81,2.81,0,0,0-2.92,1.81c-1.26,2.69-2.68,5.31-4.06,7.94a2.37,2.37,0,0,1-2.21,1.42c-5,0-10,0-15,0C112.9,70.73,112.7,70.68,112.23,70.62Z"/></svg>
