<svg id="Layer_1" data-name="Layer 1" xmlns="http://www.w3.org/2000/svg" viewBox="0 0 74.03 77.55"><defs><style>.cls-1{fill:#2675e5;}.cls-2{fill:#7e2793;}.cls-3{fill:#f36;}</style></defs><title>Chadrte graph - FMA</title><path class="cls-1" d="M9.35,37.2A47.51,47.51,0,0,0,8.6,47.6a26.19,26.19,0,0,0,1,5.61,32.88,32.88,0,0,0,4.18,9.42A33.23,33.23,0,0,0,29,75.24a35.73,35.73,0,0,0,12.15,2.31H74V46.12c-.12-4.93-.64-9.78-2.66-14.5A33,33,0,0,0,41,11.92h0a23.86,23.86,0,0,0-2.39.08C43,22.2,38,32.8,27.8,37.27a20.22,20.22,0,0,1-8.14,1.87c-3.77,0-7.13,0-10.32-2m46.9,14.14v8.49H45c-4.13,0-7.36-.2-9.75-1.17A16.93,16.93,0,0,1,29,54.32c11.18-2.78,19-9.39,23.42-20v-.06a15.83,15.83,0,0,1,2.44,3.89C56.27,41.38,56.26,45.77,56.24,51.33Z"/><path class="cls-2" d="M40.25,20.09c0,15.51-17.67,25.45-30.9,17.11C12.51,23.89,24.58,12.57,38.57,12A20.07,20.07,0,0,1,40.25,20.09Z"/><path class="cls-3" d="M38.57,12c-14,.56-26.06,11.88-29.22,25.19A20.39,20.39,0,0,1,7.07,4.62,20.41,20.41,0,0,1,38.57,12Z"/></svg>